#
#
#

mtllib shark_head_002.mtl


#
# pDisc1 メッシュ
#
g pDisc1 メッシュ


#
# pDisc1 メッシュ_initialShadingGroup
#
usemtl pDisc1 メッシュ_initialShadingGroup

v -0.596612 0.187767 0.015969
v -0.596612 -0.156687 0.015969
v -0.941066 0.015540 0.015969
v -0.894918 -0.328914 0.015969
v -1.243637 -0.442668 0.015969
v -1.284168 -0.168838 0.015969
v -1.334058 0.161909 0.015969
v -0.987214 0.359994 0.015969
v -0.596612 0.532221 0.015969
v -1.317064 0.353244 0.015969
v -0.964140 0.744413 0.015969
v -1.140715 0.680891 0.015969
v -1.040713 0.847778 0.015969
v -0.781249 1.106529 0.015969
v -0.642760 0.956606 0.015969
v -0.416461 1.254488 0.015969
v -0.321380 1.088867 0.015969
v 0.000000 1.307298 0.015969
v 0.000000 1.221129 0.015969
v 0.000000 0.876675 0.015969
v -0.298306 0.704448 0.015969
v 0.000000 0.532221 0.015969
v -0.298306 0.359994 0.015969
v 0.000000 0.187767 0.015969
v -0.298306 0.015540 0.015969
v 0.298306 0.704448 0.015969
v 0.321380 1.088867 0.015969
v 0.420271 1.257599 0.015969
v 0.688908 1.146382 0.015969
v 0.642760 0.956606 0.015969
v 0.596612 0.532221 0.015969
v 0.789720 1.105267 0.015969
v 0.964140 0.744413 0.015969
v 1.053834 0.841005 0.015969
v 1.316070 0.355092 0.015969
v 1.330938 0.157375 0.015969
v 0.987214 0.359994 0.015969
v 0.941066 0.015540 0.015969
v 1.246523 -0.444584 0.015969
v 1.106699 -0.676231 0.159096
v 0.894918 -0.328914 0.015969
v 0.596612 -0.156687 0.015969
v 0.596612 0.187767 0.015969
v 0.298306 0.015540 0.015969
v 0.298306 0.359994 0.015969
v 0.298306 -0.328914 0.015969
v 0.619686 -0.541107 0.015969
v 0.899954 -0.864606 0.015969
v 0.688908 -0.868063 0.015969
v 0.344454 -0.753299 0.015969
v 0.000000 -0.501141 0.015969
v 0.356605 -0.873029 0.015969
v 0.000000 -0.733784 0.015969
v 0.000000 -0.880752 0.015969
v -0.444180 -0.889085 0.015969
v -0.901005 -0.864785 0.015969
v -0.344454 -0.753299 0.015969
v -0.619686 -0.541107 0.015969
v -1.087602 -0.682010 0.173583
v -0.298306 -0.328914 0.015969
v 0.000000 -0.156687 0.015969
vn 0.000000 0.000000 -1.000000
vn -0.043567 -0.142318 -0.988862
vn 0.083855 -0.257062 -0.962750
vn -0.058738 -0.178547 -0.982177
vn 0.351516 -0.165383 -0.921458
vn 0.046013 -0.049883 -0.997695
vn 0.257126 0.002417 -0.966375
vn -0.256775 0.223171 -0.940352
vn -0.078974 -0.017531 -0.996723
vn -0.180467 -0.130727 -0.974855
vt 0.283494 0.500000
vt 0.283494 0.625000
vt 0.158494 0.562500
vt 0.175240 0.687500
vt 0.066987 0.750000
vt 0.017037 0.629409
vt 0.000000 0.500000
vt 0.141747 0.437500
vt 0.283494 0.375000
vt 0.017037 0.370590
vt 0.150120 0.297997
vt 0.066987 0.250000
vt 0.146447 0.146447
vt 0.250000 0.066987
vt 0.266747 0.220994
vt 0.370591 0.017037
vt 0.383373 0.172997
vt 0.500000 0.000000
vt 0.500000 0.125000
vt 0.500000 0.250000
vt 0.391747 0.312500
vt 0.500000 0.375000
vt 0.391747 0.437500
vt 0.500000 0.500000
vt 0.391747 0.562500
vt 0.608253 0.312500
vt 0.616627 0.172997
vt 0.629410 0.017037
vt 0.750000 0.066987
vt 0.733253 0.220994
vt 0.716506 0.375000
vt 0.853553 0.146447
vt 0.849880 0.297997
vt 0.933013 0.250000
vt 0.982963 0.370591
vt 1.000000 0.500000
vt 0.858253 0.437500
vt 0.841506 0.562500
vt 0.982963 0.629410
vt 0.933013 0.750000
vt 0.824759 0.687500
vt 0.716506 0.625000
vt 0.716506 0.500000
vt 0.608253 0.562500
vt 0.608253 0.437500
vt 0.608253 0.687500
vt 0.724880 0.764503
vt 0.853553 0.853553
vt 0.750000 0.933013
vt 0.625000 0.841506
vt 0.500000 0.750000
vt 0.629409 0.982963
vt 0.500000 0.904006
vt 0.500000 1.000000
vt 0.370590 0.982963
vt 0.250000 0.933013
vt 0.375000 0.841506
vt 0.275120 0.764503
vt 0.146447 0.853553
vt 0.391747 0.687500
vt 0.500000 0.625000
f 1/1/1 2/2/1 3/3/1
f 3/3/1 2/2/1 4/4/2
f 5/5/3 6/6/1 4/4/2
f 4/4/2 6/6/1 3/3/1
f 6/6/1 7/7/1 3/3/1
f 3/3/1 7/7/1 8/8/1
f 9/9/1 1/1/1 8/8/1
f 8/8/1 1/1/1 3/3/1
f 7/7/1 10/10/1 8/8/1
f 8/8/1 10/10/1 11/11/1
f 10/10/1 12/12/1 11/11/1
f 11/11/1 12/12/1 13/13/1
f 13/13/1 14/14/1 11/11/1
f 11/11/1 14/14/1 15/15/1
f 15/15/1 9/9/1 11/11/1
f 11/11/1 9/9/1 8/8/1
f 14/14/1 16/16/1 15/15/1
f 15/15/1 16/16/1 17/17/1
f 16/16/1 18/18/1 17/17/1
f 17/17/1 18/18/1 19/19/1
f 19/19/1 20/20/1 17/17/1
f 17/17/1 20/20/1 21/21/1
f 9/9/1 15/15/1 21/21/1
f 21/21/1 15/15/1 17/17/1
f 20/20/1 22/22/1 21/21/1
f 21/21/1 22/22/1 23/23/1
f 22/22/1 24/24/1 23/23/1
f 23/23/1 24/24/1 25/25/1
f 2/2/1 1/1/1 25/25/1
f 25/25/1 1/1/1 23/23/1
f 1/1/1 9/9/1 23/23/1
f 23/23/1 9/9/1 21/21/1
f 26/26/1 20/20/1 27/27/1
f 27/27/1 20/20/1 19/19/1
f 19/19/1 18/18/1 27/27/1
f 27/27/1 18/18/1 28/28/1
f 28/28/1 29/29/1 27/27/1
f 27/27/1 29/29/1 30/30/1
f 31/31/1 26/26/1 30/30/1
f 30/30/1 26/26/1 27/27/1
f 29/29/1 32/32/1 30/30/1
f 30/30/1 32/32/1 33/33/1
f 32/32/1 34/34/1 33/33/1
f 33/33/1 34/34/1 35/35/1
f 36/36/1 37/37/1 35/35/1
f 35/35/1 37/37/1 33/33/1
f 37/37/1 31/31/1 33/33/1
f 33/33/1 31/31/1 30/30/1
f 37/37/1 36/36/1 38/38/1
f 38/38/1 36/36/1 39/39/4
f 40/40/5 41/41/6 39/39/4
f 39/39/4 41/41/6 38/38/1
f 41/41/6 42/42/1 38/38/1
f 38/38/1 42/42/1 43/43/1
f 31/31/1 37/37/1 43/43/1
f 43/43/1 37/37/1 38/38/1
f 42/42/1 44/44/1 43/43/1
f 43/43/1 44/44/1 45/45/1
f 44/44/1 24/24/1 45/45/1
f 45/45/1 24/24/1 22/22/1
f 20/20/1 26/26/1 22/22/1
f 22/22/1 26/26/1 45/45/1
f 26/26/1 31/31/1 45/45/1
f 45/45/1 31/31/1 43/43/1
f 46/46/1 42/42/1 47/47/1
f 47/47/1 42/42/1 41/41/6
f 40/40/5 48/48/7 41/41/6
f 41/41/6 48/48/7 47/47/1
f 48/48/7 49/49/1 47/47/1
f 47/47/1 49/49/1 50/50/1
f 51/51/1 46/46/1 50/50/1
f 50/50/1 46/46/1 47/47/1
f 49/49/1 52/52/1 50/50/1
f 50/50/1 52/52/1 53/53/1
f 52/52/1 54/54/1 53/53/1
f 53/53/1 54/54/1 55/55/1
f 56/56/8 57/57/1 55/55/1
f 55/55/1 57/57/1 53/53/1
f 57/57/1 51/51/1 53/53/1
f 53/53/1 51/51/1 50/50/1
f 57/57/1 56/56/8 58/58/9
f 58/58/9 56/56/8 59/59/10
f 5/5/3 4/4/2 59/59/10
f 59/59/10 4/4/2 58/58/9
f 4/4/2 2/2/1 58/58/9
f 58/58/9 2/2/1 60/60/1
f 51/51/1 57/57/1 60/60/1
f 60/60/1 57/57/1 58/58/9
f 2/2/1 25/25/1 60/60/1
f 60/60/1 25/25/1 61/61/1
f 25/25/1 24/24/1 61/61/1
f 61/61/1 24/24/1 44/44/1
f 42/42/1 46/46/1 44/44/1
f 44/44/1 46/46/1 61/61/1
f 46/46/1 51/51/1 61/61/1
f 61/61/1 51/51/1 60/60/1


#
# shark_head_003:transform1 メッシュ
#
g shark_head_003:transform1 メッシュ


#
# shark_head_003:transform1 メッシュ_shark_head_003:polySurface1
#
usemtl shark_head_003:transform1 メッシュ_shark_head_003:polySurface1

v 0.176898 -0.435138 2.377788
v 0.213052 -0.151349 3.039428
v 0.073269 -0.125566 3.268657
v 0.432326 -0.018802 3.040655
v 0.210311 0.042800 3.271714
v 0.297825 0.791492 1.531394
v -0.001307 0.839810 1.531394
v 0.371643 0.084966 3.032477
v 0.427585 0.358398 2.372830
v 0.570182 0.664948 1.531437
v 0.583699 -0.604284 1.532647
v 0.311967 -0.667118 1.532677
v -0.010454 -0.143695 3.275052
v 0.485863 -0.301214 2.377316
v 0.774961 -0.479653 1.532559
v 0.901404 -0.875818 0.017699
v 0.403129 -0.816778 0.755393
v -0.456046 -0.902003 0.040780
v -0.403129 -0.816778 0.755393
v 0.744813 -0.744343 0.755391
v 1.103168 -0.697878 0.171687
v 0.907998 -0.308879 1.532429
v 1.244768 -0.456160 0.017578
v 0.421255 1.252028 0.040780
v 0.000000 1.301927 0.040780
v 0.698458 0.908166 0.755393
v 0.791063 1.097341 0.040780
v 1.052281 0.073946 1.532109
v 1.230650 0.104953 0.755393
v 1.213525 0.266009 0.755391
v 1.336484 0.145628 0.040780
v 1.319360 0.346933 0.040780
v 0.794009 0.057613 2.375513
v 0.779603 0.114995 2.374785
v 0.497462 0.060240 3.038195
v 0.586815 0.254078 2.373345
v 0.247892 0.003044 3.277839
v 0.242049 0.027429 3.276385
v -0.010454 0.016509 3.289174
v -0.010454 0.048542 3.282906
v 0.952143 0.672257 0.755391
v 1.057978 0.832873 0.040780
v 0.200569 -0.038705 3.279196
v -0.115086 -0.125566 3.268657
v -0.275778 -0.151349 3.039428
v -0.495052 -0.018802 3.040655
v -0.303053 0.791492 1.531394
v -0.252129 0.042800 3.271714
v -0.579330 0.664948 1.531437
v -0.464176 0.358398 2.372830
v -0.317194 -0.667118 1.532677
v -0.592847 -0.604284 1.532647
v -0.527681 -0.301214 2.377316
v -0.785416 -0.479653 1.532559
v -0.744812 -0.744343 0.755391
v -0.901404 -0.875818 0.017699
v -1.098926 -0.378661 0.755391
v -1.103168 -0.697878 0.171687
v -1.244768 -0.456160 0.017578
v -0.421255 1.252028 0.040780
v -0.791063 1.097341 0.040780
v -0.698457 0.908166 0.755393
v -1.319360 0.346933 0.040780
v -1.336484 0.145628 0.040780
v -1.213525 0.266009 0.755391
v -1.230650 0.104953 0.755393
v -1.062736 0.073946 1.532109
v -0.560189 0.060240 3.038195
v -0.821421 0.114995 2.374785
v -0.835826 0.057613 2.375513
v -0.501545 0.067429 3.036108
v -0.628633 0.254078 2.373345
v -0.283867 0.027429 3.276385
v -0.289710 0.003044 3.277839
v -0.952143 0.672257 0.755393
v -1.057977 0.832873 0.040780
v -0.242386 -0.038705 3.279196
vn 0.056327 -0.946740 0.317034
vn 0.435538 -0.824836 0.360490
vn 0.286345 -0.783865 0.550964
vn 0.630648 -0.677192 0.379070
vn 0.117645 0.901360 0.416786
vn 0.230706 0.906712 0.353054
vn 0.000406 0.935250 0.353989
vn 0.321815 0.871376 0.370323
vn 0.463121 0.810887 0.357745
vn 0.566321 0.743926 0.354761
vn 0.360143 -0.889805 0.280258
vn 0.065467 -0.970104 0.233692
vn -0.024727 -0.941045 0.337378
vn 0.472023 -0.806582 0.355836
vn 0.661491 -0.683750 0.308084
vn 0.129665 -0.982184 0.136022
vn 0.050065 -0.987920 0.146656
vn -0.021638 -0.991759 0.126278
vn -0.064655 -0.985102 0.159355
vn 0.384235 -0.891265 0.240852
vn 0.788002 -0.560750 0.254189
vn 0.863575 -0.427260 0.267746
vn 0.937908 -0.278634 0.206622
vn 0.204692 0.933040 0.295869
vn 0.000061 0.955153 0.296114
vn 0.458400 0.835117 0.304055
vn 0.523936 0.804149 0.280775
vn 0.960821 -0.090805 0.261872
vn 0.953270 -0.212287 0.214967
vn 0.858402 0.455914 0.235135
vn 0.985455 -0.093841 0.141674
vn 0.898923 0.388303 0.202876
vn 0.802457 -0.486604 0.345368
vn 0.672854 0.667819 0.318255
vn 0.722325 0.455037 0.520758
vn 0.533331 0.781145 0.324609
vn 0.542347 -0.359867 0.759181
vn 0.364466 0.622803 0.692301
vn -0.002538 -0.073670 0.997279
vn -0.000173 0.905520 0.424303
vn 0.766939 0.584771 0.264287
vn 0.786339 0.565672 0.248369
vn 0.406905 -0.615839 0.674663
vn -0.184366 -0.909399 0.372830
vn -0.360543 -0.868282 0.340727
vn -0.634680 -0.678654 0.369608
vn -0.229345 0.908066 0.350453
vn -0.104076 0.904147 0.414350
vn -0.556012 0.757333 0.342488
vn -0.409169 0.839736 0.356965
vn -0.090226 -0.962610 0.255423
vn -0.325577 -0.901015 0.286655
vn -0.495691 -0.798628 0.341298
vn -0.747361 -0.601265 0.282722
vn -0.366725 -0.903143 0.223260
vn -0.232783 -0.947707 0.218318
vn -0.901760 -0.366543 0.229075
vn -0.727294 -0.637700 0.253735
vn -0.953523 -0.215044 0.211069
vn -0.204600 0.933158 0.295558
vn -0.523936 0.804149 0.280775
vn -0.459685 0.835162 0.301984
vn -0.898922 0.388304 0.202876
vn -0.977276 -0.118063 0.176047
vn -0.861245 0.456851 0.222585
vn -0.970452 -0.172808 0.168406
vn -0.959375 -0.136696 0.246807
vn -0.843268 0.141880 0.518430
vn -0.678289 0.670252 0.301142
vn -0.809511 -0.495142 0.315478
vn -0.257093 0.897937 0.357228
vn -0.533446 0.787795 0.307920
vn -0.368800 0.526990 0.765682
vn -0.516340 -0.340472 0.785794
vn -0.767851 0.587907 0.254500
vn -0.786338 0.565672 0.248369
vn -0.386799 -0.593364 0.705908
vt 0.721521 0.723743
vt 0.724265 0.773952
vt 0.713657 0.791348
vt 0.740904 0.774045
vt 0.934519 0.002668
vt 0.941160 0.134733
vt 0.918460 0.134733
vt 0.946761 0.020822
vt 0.951007 0.070880
vt 0.961828 0.134730
vt 0.752392 0.659609
vt 0.731771 0.659611
vt 0.707304 0.791833
vt 0.744967 0.723708
vt 0.766906 0.659602
vt 0.117235 0.810409
vt 0.105863 0.760164
vt 0.127294 0.810502
vt 0.092322 0.696059
vt 0.776501 0.544646
vt 0.738689 0.600627
vt 0.673490 0.546398
vt 0.677505 0.600627
vt 0.764618 0.600627
vt 0.075762 0.592789
vt 0.105281 0.696050
vt 0.094105 0.581094
vt 0.082864 0.696066
vt 0.072236 0.637084
vt 0.062259 0.581103
vt 0.950526 0.247850
vt 0.918559 0.247850
vt 0.971562 0.193621
vt 0.978589 0.247850
vt 0.134332 0.696025
vt 0.136685 0.637084
vt 0.148907 0.637084
vt 0.139772 0.582855
vt 0.155048 0.582855
vt 0.133093 0.760028
vt 0.137447 0.759972
vt 0.133292 0.810316
vt 0.977720 0.070732
vt 0.963090 0.070841
vt 0.956309 0.020389
vt 0.277124 0.899525
vt 0.278975 0.899969
vt 0.278146 0.919130
vt 0.128952 0.828501
vt 0.130802 0.828391
vt 0.936927 0.002313
vt 0.280141 0.902377
vt 0.280577 0.919130
vt 0.179181 0.695974
vt 0.179735 0.637084
vt 0.197637 0.637084
vt 0.191924 0.582855
vt 0.211993 0.582855
vt 0.148002 0.759863
vt 0.155918 0.759824
vt 0.917766 0.001819
vt 0.723317 0.792147
vt 0.125784 0.828604
vt 0.267365 0.912777
vt 0.273956 0.903117
vt 0.265989 0.919130
vt 0.267365 0.927070
vt 0.687170 0.773952
vt 0.699364 0.791348
vt 0.670530 0.774045
vt 0.895562 0.134733
vt 0.899426 0.002668
vt 0.874596 0.134730
vt 0.883335 0.070880
vt 0.684027 0.659611
vt 0.663109 0.659609
vt 0.400028 0.020013
vt 0.410087 0.019920
vt 0.388656 0.070258
vt 0.375115 0.134363
vt 0.668054 0.723707
vt 0.648495 0.659602
vt 0.651577 0.600627
vt 0.639693 0.544646
vt 0.382779 0.193339
vt 0.358555 0.237634
vt 0.376898 0.249329
vt 0.355029 0.193339
vt 0.345052 0.249319
vt 0.365657 0.134356
vt 0.886592 0.247850
vt 0.858529 0.247850
vt 0.865556 0.193621
vt 0.437841 0.247568
vt 0.422565 0.247568
vt 0.431700 0.193339
vt 0.419478 0.193339
vt 0.417125 0.134397
vt 0.416085 0.020107
vt 0.420240 0.070450
vt 0.415886 0.070395
vt 0.880499 0.020547
vt 0.870855 0.070841
vt 0.876049 0.020389
vt 0.856225 0.070732
vt 0.278975 0.939878
vt 0.277124 0.940322
vt 0.280141 0.937470
vt 0.897018 0.002313
vt 0.413595 0.002032
vt 0.411745 0.001921
vt 0.480430 0.193339
vt 0.462528 0.193339
vt 0.461974 0.134448
vt 0.494786 0.247568
vt 0.474717 0.247568
vt 0.430795 0.070560
vt 0.438711 0.070599
vt 0.273956 0.936731
vt 0.408577 0.001818
vt 0.689703 0.792147
f 62/62/11 63/63/12 64/64/13
f 64/64/13 63/63/12 65/65/14
f 66/66/15 67/67/16 68/68/17
f 66/66/15 69/69/18 67/67/16
f 67/67/16 69/69/18 70/70/19
f 70/70/19 71/71/20 67/67/16
f 72/72/21 62/62/11 73/73/22
f 62/62/11 64/64/13 74/74/23
f 62/62/11 75/75/24 63/63/12
f 62/62/11 72/72/21 75/75/24
f 75/75/24 72/72/21 76/76/25
f 63/77/12 75/78/24 65/79/14
f 65/79/14 75/78/24 76/80/25
f 77/81/26 78/82/27 79/83/28
f 79/83/28 78/82/27 80/84/29
f 77/81/26 81/85/30 78/82/27
f 81/85/30 72/72/21 78/82/27
f 78/82/27 72/72/21 73/73/22
f 78/82/27 73/73/22 80/84/29
f 76/80/25 82/86/31 83/87/32
f 83/87/32 82/86/31 84/88/33
f 72/89/21 81/90/30 76/80/25
f 76/80/25 81/90/30 82/86/31
f 82/86/31 81/90/30 77/91/26
f 67/67/16 85/92/34 68/68/17
f 68/68/17 85/92/34 86/93/35
f 71/71/20 87/94/36 67/67/16
f 67/67/16 87/94/36 85/92/34
f 87/94/36 88/95/37 85/92/34
f 89/96/38 90/97/39 91/98/40
f 90/97/39 92/99/41 91/98/40
f 91/98/40 92/99/41 93/100/42
f 94/101/43 95/102/44 96/103/45
f 94/101/43 89/96/38 95/102/44
f 95/102/44 89/96/38 91/98/40
f 95/104/44 97/105/46 96/106/45
f 96/106/45 97/105/46 69/69/18
f 98/107/47 99/108/48 100/109/49
f 98/110/47 96/103/45 99/111/48
f 96/106/45 69/69/18 99/112/48
f 99/112/48 69/69/18 66/66/15
f 99/108/48 66/113/15 100/109/49
f 100/109/49 66/113/15 101/114/50
f 71/115/20 102/116/51 87/117/36
f 95/102/44 91/98/40 102/116/51
f 91/98/40 93/100/42 102/116/51
f 102/116/51 93/100/42 103/118/52
f 102/116/51 103/118/52 87/117/36
f 87/117/36 103/118/52 88/119/37
f 95/102/44 102/116/51 97/120/46
f 97/120/46 102/116/51 70/121/19
f 70/121/19 102/116/51 71/115/20
f 69/69/18 97/105/46 70/70/19
f 101/122/50 66/66/15 68/68/17
f 83/87/32 90/97/39 89/96/38
f 83/87/32 84/88/33 90/97/39
f 90/97/39 84/88/33 92/99/41
f 65/79/14 76/80/25 94/101/43
f 76/80/25 83/87/32 94/101/43
f 94/101/43 83/87/32 89/96/38
f 65/79/14 94/101/43 96/103/45
f 64/64/13 65/65/14 104/123/53
f 104/124/53 65/79/14 98/110/47
f 98/110/47 65/79/14 96/103/45
f 64/125/13 104/126/53 100/109/49
f 100/109/49 104/126/53 98/107/47
f 74/127/23 64/125/13 105/128/54
f 106/129/55 105/130/54 107/131/56
f 68/68/17 108/132/57 109/133/58
f 108/132/57 110/134/59 111/135/60
f 109/133/58 108/132/57 111/135/60
f 62/62/11 112/136/61 73/73/22
f 74/74/23 105/130/54 62/62/11
f 62/62/11 105/130/54 112/136/61
f 105/130/54 106/129/55 112/136/61
f 112/136/61 106/129/55 113/137/62
f 106/138/55 107/139/56 114/140/63
f 114/140/63 107/139/56 115/141/64
f 106/129/55 114/142/63 113/137/62
f 113/137/62 114/142/63 115/143/64
f 73/73/22 112/136/61 80/84/29
f 112/136/61 113/137/62 80/84/29
f 80/84/29 113/137/62 116/144/65
f 80/84/29 116/144/65 79/83/28
f 79/83/28 116/144/65 117/145/66
f 118/146/67 119/147/68 115/141/64
f 120/148/69 119/147/68 118/146/67
f 116/149/65 119/147/68 117/150/66
f 119/147/68 116/149/65 115/141/64
f 115/141/64 116/149/65 113/151/62
f 86/93/35 121/152/70 68/68/17
f 68/68/17 121/152/70 108/132/57
f 121/152/70 122/153/71 123/154/72
f 121/152/70 123/154/72 108/132/57
f 108/132/57 123/154/72 110/134/59
f 124/155/73 125/156/74 126/157/75
f 126/157/75 125/156/74 127/158/76
f 126/157/75 127/158/76 128/159/77
f 129/160/78 130/161/79 131/162/80
f 132/163/81 133/164/82 129/165/78
f 129/165/78 133/164/82 130/166/79
f 131/162/80 130/161/79 128/159/77
f 128/159/77 130/161/79 126/157/75
f 100/109/49 134/167/83 135/168/84
f 101/114/50 109/169/58 100/109/49
f 100/109/49 109/169/58 134/167/83
f 109/133/58 132/163/81 134/170/83
f 134/170/83 132/163/81 129/165/78
f 134/171/83 129/160/78 135/172/84
f 123/173/72 136/174/85 110/175/59
f 122/176/71 137/177/86 123/173/72
f 123/173/72 137/177/86 136/174/85
f 137/177/86 124/155/73 136/174/85
f 136/174/85 124/155/73 126/157/75
f 136/174/85 126/157/75 130/161/79
f 132/163/81 111/135/60 133/164/82
f 133/178/82 111/179/60 136/174/85
f 136/174/85 111/179/60 110/175/59
f 133/178/82 136/174/85 130/161/79
f 68/68/17 109/133/58 101/122/50
f 132/163/81 109/133/58 111/135/60
f 128/159/77 127/158/76 118/146/67
f 127/158/76 125/156/74 118/146/67
f 118/146/67 125/156/74 120/148/69
f 115/141/64 107/139/56 131/162/80
f 107/139/56 129/160/78 131/162/80
f 118/146/67 131/162/80 128/159/77
f 115/141/64 131/162/80 118/146/67
f 105/128/54 64/125/13 138/180/87
f 64/125/13 100/109/49 138/180/87
f 138/180/87 100/109/49 135/168/84
f 138/181/87 135/172/84 107/139/56
f 107/139/56 135/172/84 129/160/78
f 105/130/54 138/182/87 107/131/56
